<?xml version="1.0" encoding="UTF-8" standalone="no"?>
<!DOCTYPE svg PUBLIC "-//W3C//DTD SVG 1.1//EN"
 "http://www.w3.org/Graphics/SVG/1.1/DTD/svg11.dtd">
<!-- Generated by graphviz version 5.0.0 (0)
 -->
<!-- Pages: 1 -->
<svg width="210pt" height="44pt"
 viewBox="0.00 0.00 210.27 44.00" xmlns="http://www.w3.org/2000/svg" xmlns:xlink="http://www.w3.org/1999/xlink">
<g id="graph0" class="graph" transform="scale(1 1) rotate(0) translate(4 40)">
<polygon fill="white" stroke="transparent" points="-4,4 -4,-40 206.27,-40 206.27,4 -4,4"/>
<!-- API -->
<g id="node1" class="node">
<title>API</title>
<polygon fill="orchid" stroke="black" points="58.31,-18 43.79,-36 14.75,-36 0.23,-18 14.75,0 43.79,0 58.31,-18"/>
<text text-anchor="middle" x="29.27" y="-14.3" font-family="Helvetica,sans-Serif" font-size="14.00">API</text>
</g>
<!-- Pod -->
<g id="node2" class="node">
<title>Pod</title>
<polygon fill="cyan" stroke="black" points="130.27,-36 76.27,-36 76.27,0 130.27,0 130.27,-36"/>
<text text-anchor="middle" x="103.27" y="-14.3" font-family="Helvetica,sans-Serif" font-size="14.00">Pod</text>
</g>
<!-- Store -->
<g id="node3" class="node">
<title>Store</title>
<path fill="beige" stroke="black" d="M202.27,-32.73C202.27,-34.53 190.17,-36 175.27,-36 160.37,-36 148.27,-34.53 148.27,-32.73 148.27,-32.73 148.27,-3.27 148.27,-3.27 148.27,-1.47 160.37,0 175.27,0 190.17,0 202.27,-1.47 202.27,-3.27 202.27,-3.27 202.27,-32.73 202.27,-32.73"/>
<path fill="none" stroke="black" d="M202.27,-32.73C202.27,-30.92 190.17,-29.45 175.27,-29.45 160.37,-29.45 148.27,-30.92 148.27,-32.73"/>
<text text-anchor="middle" x="175.27" y="-14.3" font-family="Helvetica,sans-Serif" font-size="14.00">Store</text>
</g>
</g>
</svg>
