<?xml version="1.0" encoding="UTF-8" standalone="no"?>
<!DOCTYPE svg PUBLIC "-//W3C//DTD SVG 1.1//EN"
 "http://www.w3.org/Graphics/SVG/1.1/DTD/svg11.dtd">
<!-- Generated by graphviz version 5.0.0 (0)
 -->
<!-- Pages: 1 -->
<svg width="629pt" height="374pt"
 viewBox="0.00 0.00 629.00 373.50" xmlns="http://www.w3.org/2000/svg" xmlns:xlink="http://www.w3.org/1999/xlink">
<g id="graph0" class="graph" transform="scale(1 1) rotate(0) translate(4 369.5)">
<polygon fill="white" stroke="transparent" points="-4,4 -4,-369.5 625,-369.5 625,4 -4,4"/>
<g id="clust2" class="cluster">
<title>cluster_clo</title>
<polygon fill="none" stroke="black" points="154,-279.5 154,-357.5 613,-357.5 613,-279.5 154,-279.5"/>
<text text-anchor="middle" x="383.5" y="-340.7" font-family="Helvetica,sans-Serif" font-size="16.00">Cluster Logging Operator</text>
</g>
<g id="clust3" class="cluster">
<title>cluster_loki</title>
<polygon fill="none" stroke="black" points="8,-170.5 8,-248.5 349,-248.5 349,-170.5 8,-170.5"/>
<text text-anchor="middle" x="178.5" y="-231.7" font-family="Helvetica,sans-Serif" font-size="16.00">LokiStack Operator</text>
</g>
<!-- cl -->
<g id="node1" class="node">
<title>cl</title>
<polygon fill="orchid" stroke="black" points="345.62,-305.5 299.81,-323.5 208.19,-323.5 162.38,-305.5 208.19,-287.5 299.81,-287.5 345.62,-305.5"/>
<text text-anchor="middle" x="254" y="-301.8" font-family="Helvetica,sans-Serif" font-size="14.00">ClusterLogging</text>
</g>
<!-- loki -->
<g id="node3" class="node">
<title>loki</title>
<polygon fill="orchid" stroke="black" points="253.65,-196.5 194.33,-214.5 75.67,-214.5 16.35,-196.5 75.67,-178.5 194.33,-178.5 253.65,-196.5"/>
<text text-anchor="middle" x="135" y="-192.8" font-family="Helvetica,sans-Serif" font-size="14.00">LokiStack Resources</text>
</g>
<!-- cl&#45;&gt;loki -->
<g id="edge2" class="edge">
<title>cl&#45;&gt;loki</title>
<path fill="none" stroke="black" d="M234.88,-287.31C215.02,-269.45 183.78,-241.36 161.53,-221.36"/>
<polygon fill="black" stroke="black" points="163.85,-218.73 154.07,-214.65 159.17,-223.94 163.85,-218.73"/>
<text text-anchor="middle" x="235.5" y="-259.9" font-family="Helvetica,sans-Serif" font-size="12.00">creates</text>
</g>
<!-- fd -->
<g id="node4" class="node">
<title>fd</title>
<polygon fill="cyan" stroke="black" points="489.5,-223 370.5,-223 370.5,-170 489.5,-170 489.5,-223"/>
<text text-anchor="middle" x="430" y="-207.8" font-family="Helvetica,sans-Serif" font-size="14.00">Vector</text>
<text text-anchor="middle" x="430" y="-192.8" font-family="Helvetica,sans-Serif" font-size="14.00">Daemonset</text>
<text text-anchor="middle" x="430" y="-177.8" font-family="Helvetica,sans-Serif" font-size="14.00">(Pod per node)</text>
</g>
<!-- cl&#45;&gt;fd -->
<g id="edge3" class="edge">
<title>cl&#45;&gt;fd</title>
<path fill="none" stroke="black" d="M291.94,-287.4C303.1,-282.01 315.2,-275.81 326,-269.5 346.88,-257.29 369.04,-242.26 387.52,-229.1"/>
<polygon fill="black" stroke="black" points="389.65,-231.88 395.73,-223.2 385.57,-226.19 389.65,-231.88"/>
<text text-anchor="middle" x="369.5" y="-259.9" font-family="Helvetica,sans-Serif" font-size="12.00">creates</text>
</g>
<!-- console -->
<g id="node7" class="node">
<title>console</title>
<path fill="beige" stroke="black" d="M340.5,-211.23C340.5,-213.03 325.04,-214.5 306,-214.5 286.96,-214.5 271.5,-213.03 271.5,-211.23 271.5,-211.23 271.5,-181.77 271.5,-181.77 271.5,-179.97 286.96,-178.5 306,-178.5 325.04,-178.5 340.5,-179.97 340.5,-181.77 340.5,-181.77 340.5,-211.23 340.5,-211.23"/>
<path fill="none" stroke="black" d="M340.5,-211.23C340.5,-209.42 325.04,-207.95 306,-207.95 286.96,-207.95 271.5,-209.42 271.5,-211.23"/>
<text text-anchor="middle" x="306" y="-192.8" font-family="Helvetica,sans-Serif" font-size="14.00">console</text>
</g>
<!-- cl&#45;&gt;console -->
<g id="edge4" class="edge">
<title>cl&#45;&gt;console</title>
<path fill="none" stroke="black" d="M262.35,-287.31C270.69,-270.15 283.62,-243.55 293.24,-223.75"/>
<polygon fill="black" stroke="black" points="296.44,-225.17 297.67,-214.65 290.15,-222.11 296.44,-225.17"/>
<text text-anchor="middle" x="299.5" y="-259.9" font-family="Helvetica,sans-Serif" font-size="12.00">creates</text>
</g>
<!-- clf -->
<g id="node2" class="node">
<title>clf</title>
<polygon fill="orchid" stroke="black" points="604.66,-305.5 544.33,-323.5 423.67,-323.5 363.34,-305.5 423.67,-287.5 544.33,-287.5 604.66,-305.5"/>
<text text-anchor="middle" x="484" y="-301.8" font-family="Helvetica,sans-Serif" font-size="14.00">ClusterLogForwarder</text>
</g>
<!-- clf&#45;&gt;fd -->
<g id="edge1" class="edge">
<title>clf&#45;&gt;fd</title>
<path fill="none" stroke="black" d="M475.32,-287.31C467.83,-272.45 456.76,-250.52 447.44,-232.05"/>
<polygon fill="black" stroke="black" points="450.52,-230.38 442.89,-223.03 444.27,-233.54 450.52,-230.38"/>
<text text-anchor="middle" x="495.5" y="-259.9" font-family="Helvetica,sans-Serif" font-size="12.00">configures</text>
</g>
<!-- store -->
<g id="node5" class="node">
<title>store</title>
<path fill="beige" stroke="black" d="M250,-117.73C250,-119.53 224.45,-121 193,-121 161.55,-121 136,-119.53 136,-117.73 136,-117.73 136,-88.27 136,-88.27 136,-86.47 161.55,-85 193,-85 224.45,-85 250,-86.47 250,-88.27 250,-88.27 250,-117.73 250,-117.73"/>
<path fill="none" stroke="black" d="M250,-117.73C250,-115.92 224.45,-114.45 193,-114.45 161.55,-114.45 136,-115.92 136,-117.73"/>
<text text-anchor="middle" x="193" y="-99.3" font-family="Helvetica,sans-Serif" font-size="14.00">Loki Log Store</text>
</g>
<!-- loki&#45;&gt;store -->
<g id="edge5" class="edge">
<title>loki&#45;&gt;store</title>
<path fill="none" stroke="black" d="M145.91,-178.29C154.58,-164.61 166.84,-145.28 176.67,-129.76"/>
<polygon fill="black" stroke="black" points="179.74,-131.45 182.14,-121.13 173.83,-127.71 179.74,-131.45"/>
<text text-anchor="middle" x="194" y="-142.4" font-family="Helvetica,sans-Serif" font-size="12.00">controls</text>
</g>
<!-- ui -->
<g id="node6" class="node">
<title>ui</title>
<ellipse fill="aliceblue" stroke="black" cx="245" cy="-18" rx="85.29" ry="18"/>
<text text-anchor="middle" x="245" y="-14.3" font-family="Helvetica,sans-Serif" font-size="14.00">Logging Console</text>
</g>
<!-- ui&#45;&gt;store -->
<g id="edge7" class="edge">
<title>ui&#45;&gt;store</title>
<path fill="none" stroke="black" d="M234.42,-35.89C227.16,-47.47 217.4,-63.06 209.17,-76.19"/>
<polygon fill="black" stroke="black" points="206.12,-74.47 203.77,-84.8 212.05,-78.19 206.12,-74.47"/>
<text text-anchor="middle" x="247.5" y="-57.4" font-family="Helvetica,sans-Serif" font-size="12.00">browses</text>
</g>
<!-- console&#45;&gt;ui -->
<g id="edge6" class="edge">
<title>console&#45;&gt;ui</title>
<path fill="none" stroke="black" d="M305.18,-178.46C303.27,-150.91 296.91,-95.48 276,-54 274.2,-50.43 271.95,-46.94 269.48,-43.63"/>
<polygon fill="black" stroke="black" points="272.11,-41.32 263.05,-35.84 266.71,-45.78 272.11,-41.32"/>
<text text-anchor="middle" x="323.5" y="-99.9" font-family="Helvetica,sans-Serif" font-size="12.00">provides</text>
</g>
</g>
</svg>
