<?xml version="1.0" encoding="UTF-8" standalone="no"?>
<!DOCTYPE svg PUBLIC "-//W3C//DTD SVG 1.1//EN"
 "http://www.w3.org/Graphics/SVG/1.1/DTD/svg11.dtd">
<!-- Generated by graphviz version 5.0.0 (0)
 -->
<!-- Pages: 1 -->
<svg width="297pt" height="361pt"
 viewBox="0.00 0.00 297.00 361.25" xmlns="http://www.w3.org/2000/svg" xmlns:xlink="http://www.w3.org/1999/xlink">
<g id="graph0" class="graph" transform="scale(1 1) rotate(0) translate(4 357.25)">
<polygon fill="white" stroke="transparent" points="-4,4 -4,-357.25 293,-357.25 293,4 -4,4"/>
<g id="clust1" class="cluster">
<title>cluster_node</title>
<polygon fill="none" stroke="black" points="45,-77 45,-345.25 281,-345.25 281,-77 45,-77"/>
<text text-anchor="middle" x="163" y="-328.45" font-family="Helvetica,sans-Serif" font-size="16.00">Node</text>
</g>
<!-- Logs -->
<g id="node1" class="node">
<title>Logs</title>
<path fill="beige" stroke="black" d="M272.5,-219.6C272.5,-222.24 244.04,-224.38 209,-224.38 173.96,-224.38 145.5,-222.24 145.5,-219.6 145.5,-219.6 145.5,-176.65 145.5,-176.65 145.5,-174.01 173.96,-171.87 209,-171.87 244.04,-171.87 272.5,-174.01 272.5,-176.65 272.5,-176.65 272.5,-219.6 272.5,-219.6"/>
<path fill="none" stroke="black" d="M272.5,-219.6C272.5,-216.97 244.04,-214.83 209,-214.83 173.96,-214.83 145.5,-216.97 145.5,-219.6"/>
<text text-anchor="middle" x="209" y="-201.93" font-family="Helvetica,sans-Serif" font-size="14.00">node filesystem</text>
<text text-anchor="middle" x="209" y="-186.93" font-family="Helvetica,sans-Serif" font-size="14.00">/var/log/...</text>
</g>
<!-- Vector -->
<g id="node4" class="node">
<title>Vector</title>
<polygon fill="cyan" stroke="black" points="194.5,-123 87.5,-123 87.5,-85 194.5,-85 194.5,-123"/>
<text text-anchor="middle" x="141" y="-107.8" font-family="Helvetica,sans-Serif" font-size="14.00">Vector</text>
<text text-anchor="middle" x="141" y="-92.8" font-family="Helvetica,sans-Serif" font-size="14.00">(DaemonSet)</text>
</g>
<!-- Logs&#45;&gt;Vector -->
<g id="edge3" class="edge">
<title>Logs&#45;&gt;Vector</title>
<path fill="none" stroke="black" d="M190.42,-171.95C181.15,-159.4 169.95,-144.22 160.55,-131.49"/>
<polygon fill="black" stroke="black" points="163.14,-129.1 154.38,-123.13 157.51,-133.26 163.14,-129.1"/>
<text text-anchor="middle" x="192" y="-144.4" font-family="Helvetica,sans-Serif" font-size="12.00">read</text>
</g>
<!-- Container -->
<g id="node2" class="node">
<title>Container</title>
<polygon fill="cyan" stroke="black" points="262.5,-311.25 155.5,-311.25 155.5,-273.25 262.5,-273.25 262.5,-311.25"/>
<text text-anchor="middle" x="209" y="-296.05" font-family="Helvetica,sans-Serif" font-size="14.00">Container</text>
<text text-anchor="middle" x="209" y="-281.05" font-family="Helvetica,sans-Serif" font-size="14.00">stdout/stderr</text>
</g>
<!-- Container&#45;&gt;Logs -->
<g id="edge1" class="edge">
<title>Container&#45;&gt;Logs</title>
<path fill="none" stroke="black" d="M209,-273.05C209,-262.04 209,-247.64 209,-234.47"/>
<polygon fill="black" stroke="black" points="212.5,-234.26 209,-224.26 205.5,-234.26 212.5,-234.26"/>
<text text-anchor="middle" x="224.5" y="-245.65" font-family="Helvetica,sans-Serif" font-size="12.00">write</text>
</g>
<!-- Journald -->
<g id="node3" class="node">
<title>Journald</title>
<polygon fill="aliceblue" stroke="black" points="127,-216.12 53,-216.12 53,-180.12 127,-180.12 127,-216.12"/>
<text text-anchor="middle" x="90" y="-194.43" font-family="Helvetica,sans-Serif" font-size="14.00">Journald</text>
</g>
<!-- Journald&#45;&gt;Vector -->
<g id="edge2" class="edge">
<title>Journald&#45;&gt;Vector</title>
<path fill="none" stroke="black" d="M99.59,-179.8C107,-166.42 117.39,-147.65 125.91,-132.26"/>
<polygon fill="black" stroke="black" points="129.15,-133.64 130.93,-123.2 123.02,-130.25 129.15,-133.64"/>
<text text-anchor="middle" x="136.5" y="-144.4" font-family="Helvetica,sans-Serif" font-size="12.00">write</text>
</g>
<!-- loki -->
<g id="node5" class="node">
<title>loki</title>
<polygon fill="aliceblue" stroke="black" points="54,-36 0,-36 0,0 54,0 54,-36"/>
<text text-anchor="middle" x="27" y="-14.3" font-family="Helvetica,sans-Serif" font-size="14.00">Loki</text>
</g>
<!-- Vector&#45;&gt;loki -->
<g id="edge4" class="edge">
<title>Vector&#45;&gt;loki</title>
<path fill="none" stroke="black" d="M96.15,-84.96C86.07,-79.9 75.77,-73.87 67,-67 58.76,-60.55 51.05,-52.14 44.64,-44.17"/>
<polygon fill="black" stroke="black" points="47.33,-41.92 38.46,-36.12 41.77,-46.18 47.33,-41.92"/>
<text text-anchor="middle" x="82.5" y="-57.4" font-family="Helvetica,sans-Serif" font-size="12.00">HTTP</text>
</g>
<!-- syslog -->
<g id="node6" class="node">
<title>syslog</title>
<polygon fill="aliceblue" stroke="black" points="133.5,-36 72.5,-36 72.5,0 133.5,0 133.5,-36"/>
<text text-anchor="middle" x="103" y="-14.3" font-family="Helvetica,sans-Serif" font-size="14.00">syslog</text>
</g>
<!-- Vector&#45;&gt;syslog -->
<g id="edge5" class="edge">
<title>Vector&#45;&gt;syslog</title>
<path fill="none" stroke="black" d="M117.75,-84.91C112.65,-79.72 107.91,-73.64 105,-67 102.23,-60.68 101.04,-53.44 100.7,-46.53"/>
<polygon fill="black" stroke="black" points="104.2,-46.14 100.76,-36.12 97.2,-46.1 104.2,-46.14"/>
<text text-anchor="middle" x="131" y="-57.4" font-family="Helvetica,sans-Serif" font-size="12.00">UDP/TCP</text>
</g>
<!-- Kafka -->
<g id="node7" class="node">
<title>Kafka</title>
<polygon fill="aliceblue" stroke="black" points="206.5,-36 151.5,-36 151.5,0 206.5,0 206.5,-36"/>
<text text-anchor="middle" x="179" y="-14.3" font-family="Helvetica,sans-Serif" font-size="14.00">Kafka</text>
</g>
<!-- Vector&#45;&gt;Kafka -->
<g id="edge6" class="edge">
<title>Vector&#45;&gt;Kafka</title>
<path fill="none" stroke="black" d="M149.25,-84.77C154.46,-73.24 161.3,-58.14 167.1,-45.31"/>
<polygon fill="black" stroke="black" points="170.36,-46.6 171.29,-36.05 163.98,-43.71 170.36,-46.6"/>
<text text-anchor="middle" x="174.5" y="-57.4" font-family="Helvetica,sans-Serif" font-size="12.00">TCP</text>
</g>
<!-- ... -->
<g id="node8" class="node">
<title>...</title>
<polygon fill="aliceblue" stroke="black" points="279,-36 225,-36 225,0 279,0 279,-36"/>
<text text-anchor="middle" x="252" y="-14.3" font-family="Helvetica,sans-Serif" font-size="14.00">...</text>
</g>
<!-- Vector&#45;&gt;... -->
<g id="edge7" class="edge">
<title>Vector&#45;&gt;...</title>
<path fill="none" stroke="black" d="M165.77,-84.99C173.55,-79.28 182.16,-72.91 190,-67 200.53,-59.06 211.97,-50.25 222.12,-42.38"/>
<polygon fill="black" stroke="black" points="224.55,-44.92 230.3,-36.02 220.25,-39.39 224.55,-44.92"/>
<text text-anchor="middle" x="212" y="-57.4" font-family="Helvetica,sans-Serif" font-size="12.00">...</text>
</g>
</g>
</svg>
