<?xml version="1.0" encoding="UTF-8" standalone="no"?>
<!DOCTYPE svg PUBLIC "-//W3C//DTD SVG 1.1//EN"
 "http://www.w3.org/Graphics/SVG/1.1/DTD/svg11.dtd">
<!-- Generated by graphviz version 5.0.0 (0)
 -->
<!-- Pages: 1 -->
<svg width="476pt" height="502pt"
 viewBox="0.00 0.00 476.00 502.25" xmlns="http://www.w3.org/2000/svg" xmlns:xlink="http://www.w3.org/1999/xlink">
<g id="graph0" class="graph" transform="scale(1 1) rotate(0) translate(4 498.25)">
<polygon fill="white" stroke="transparent" points="-4,4 -4,-498.25 472,-498.25 472,4 -4,4"/>
<g id="clust5" class="cluster">
<title>%7</title>
<polygon fill="none" stroke="transparent" points="8,-392.25 8,-486.25 460,-486.25 460,-392.25 8,-392.25"/>
</g>
<g id="clust6" class="cluster">
<title>clo</title>
<polygon fill="none" stroke="black" points="16,-400.25 16,-478.25 274,-478.25 274,-400.25 16,-400.25"/>
<text text-anchor="middle" x="145" y="-461.45" font-family="Helvetica,sans-Serif" font-size="16.00">Cluster Logging Operator</text>
</g>
<g id="clust7" class="cluster">
<title>lokiop</title>
<polygon fill="none" stroke="black" points="282,-400.25 282,-478.25 452,-478.25 452,-400.25 282,-400.25"/>
<text text-anchor="middle" x="367" y="-461.45" font-family="Helvetica,sans-Serif" font-size="16.00">LokiStack Operator</text>
</g>
<g id="clust1" class="cluster">
<title>cluster_n1</title>
<polygon fill="none" stroke="black" points="59,-200.25 59,-278.25 143,-278.25 143,-200.25 59,-200.25"/>
<text text-anchor="middle" x="101" y="-261.45" font-family="Helvetica,sans-Serif" font-size="16.00">Node 1</text>
</g>
<g id="clust2" class="cluster">
<title>cluster_n2</title>
<polygon fill="none" stroke="black" points="151,-200.25 151,-278.25 235,-278.25 235,-200.25 151,-200.25"/>
<text text-anchor="middle" x="193" y="-261.45" font-family="Helvetica,sans-Serif" font-size="16.00">Node 2</text>
</g>
<g id="clust3" class="cluster">
<title>cluster_n3</title>
<polygon fill="none" stroke="black" points="243,-200.25 243,-278.25 327,-278.25 327,-200.25 243,-200.25"/>
<text text-anchor="middle" x="285" y="-261.45" font-family="Helvetica,sans-Serif" font-size="16.00">Node 3</text>
</g>
<!-- clf -->
<g id="node1" class="node">
<title>clf</title>
<polygon fill="orchid" stroke="black" points="265.66,-426.25 205.33,-444.25 84.67,-444.25 24.34,-426.25 84.67,-408.25 205.33,-408.25 265.66,-426.25"/>
<text text-anchor="middle" x="145" y="-422.55" font-family="Helvetica,sans-Serif" font-size="14.00">ClusterLogForwarder</text>
</g>
<!-- ds -->
<g id="node2" class="node">
<title>ds</title>
<polygon fill="orchid" stroke="black" points="232.6,-335.25 196.3,-353.25 123.7,-353.25 87.4,-335.25 123.7,-317.25 196.3,-317.25 232.6,-335.25"/>
<text text-anchor="middle" x="160" y="-331.55" font-family="Helvetica,sans-Serif" font-size="14.00">DaemonSet</text>
</g>
<!-- clf&#45;&gt;ds -->
<g id="edge2" class="edge">
<title>clf&#45;&gt;ds</title>
<path fill="none" stroke="black" d="M147.89,-408.09C150.03,-395.41 152.98,-377.89 155.44,-363.33"/>
<polygon fill="black" stroke="black" points="158.91,-363.8 157.12,-353.36 152,-362.64 158.91,-363.8"/>
<text text-anchor="middle" x="182.5" y="-374.65" font-family="Helvetica,sans-Serif" font-size="12.00">configure</text>
</g>
<!-- n1 -->
<g id="node4" class="node">
<title>n1</title>
<polygon fill="cyan" stroke="black" points="135,-244.25 67,-244.25 67,-208.25 135,-208.25 135,-244.25"/>
<text text-anchor="middle" x="101" y="-222.55" font-family="Helvetica,sans-Serif" font-size="14.00">vectord</text>
</g>
<!-- ds&#45;&gt;n1 -->
<g id="edge3" class="edge">
<title>ds&#45;&gt;n1</title>
<path fill="none" stroke="black" d="M141.97,-317.16C136.98,-311.77 131.87,-305.57 128,-299.25 119.41,-285.24 112.84,-268.05 108.33,-253.98"/>
<polygon fill="black" stroke="black" points="111.67,-252.93 105.41,-244.38 104.97,-254.96 111.67,-252.93"/>
<text text-anchor="middle" x="148" y="-289.65" font-family="Helvetica,sans-Serif" font-size="12.00">deploy</text>
</g>
<!-- n2 -->
<g id="node5" class="node">
<title>n2</title>
<polygon fill="cyan" stroke="black" points="227,-244.25 159,-244.25 159,-208.25 227,-208.25 227,-244.25"/>
<text text-anchor="middle" x="193" y="-222.55" font-family="Helvetica,sans-Serif" font-size="14.00">vectord</text>
</g>
<!-- ds&#45;&gt;n2 -->
<g id="edge4" class="edge">
<title>ds&#45;&gt;n2</title>
<path fill="none" stroke="black" d="M165.3,-317.06C170.55,-300.06 178.65,-273.79 184.74,-254.04"/>
<polygon fill="black" stroke="black" points="188.11,-254.99 187.71,-244.4 181.42,-252.92 188.11,-254.99"/>
<text text-anchor="middle" x="195" y="-289.65" font-family="Helvetica,sans-Serif" font-size="12.00">deploy</text>
</g>
<!-- n3 -->
<g id="node6" class="node">
<title>n3</title>
<polygon fill="cyan" stroke="black" points="319,-244.25 251,-244.25 251,-208.25 319,-208.25 319,-244.25"/>
<text text-anchor="middle" x="285" y="-222.55" font-family="Helvetica,sans-Serif" font-size="14.00">vectord</text>
</g>
<!-- ds&#45;&gt;n3 -->
<g id="edge5" class="edge">
<title>ds&#45;&gt;n3</title>
<path fill="none" stroke="black" d="M192.59,-317.07C201.48,-311.82 210.9,-305.71 219,-299.25 236.35,-285.43 253.19,-266.94 265.53,-252.16"/>
<polygon fill="black" stroke="black" points="268.27,-254.34 271.89,-244.38 262.85,-249.91 268.27,-254.34"/>
<text text-anchor="middle" x="253" y="-289.65" font-family="Helvetica,sans-Serif" font-size="12.00">deploy</text>
</g>
<!-- lokistack -->
<g id="node3" class="node">
<title>lokistack</title>
<polygon fill="orchid" stroke="black" points="414.08,-426.25 383.04,-444.25 320.96,-444.25 289.92,-426.25 320.96,-408.25 383.04,-408.25 414.08,-426.25"/>
<text text-anchor="middle" x="352" y="-422.55" font-family="Helvetica,sans-Serif" font-size="14.00">LokiStack</text>
</g>
<!-- lokistore -->
<g id="node7" class="node">
<title>lokistore</title>
<path fill="beige" stroke="black" d="M275,-152.6C275,-156.34 258.42,-159.38 238,-159.38 217.58,-159.38 201,-156.34 201,-152.6 201,-152.6 201,-91.65 201,-91.65 201,-87.91 217.58,-84.87 238,-84.87 258.42,-84.87 275,-87.91 275,-91.65 275,-91.65 275,-152.6 275,-152.6"/>
<path fill="none" stroke="black" d="M275,-152.6C275,-148.87 258.42,-145.83 238,-145.83 217.58,-145.83 201,-148.87 201,-152.6"/>
<text text-anchor="middle" x="238" y="-117.92" font-family="Helvetica,sans-Serif" font-size="14.00">Loki Log</text>
<text text-anchor="middle" x="238" y="-102.92" font-family="Helvetica,sans-Serif" font-size="14.00">Store</text>
</g>
<!-- lokistack&#45;&gt;lokistore -->
<g id="edge1" class="edge">
<title>lokistack&#45;&gt;lokistore</title>
<path fill="none" stroke="black" d="M352.62,-408.18C353.53,-370.03 353.15,-275.32 331,-200.25 324.02,-176.59 303.83,-158.39 284.03,-145.63"/>
<polygon fill="black" stroke="black" points="285.68,-142.54 275.32,-140.33 282.04,-148.52 285.68,-142.54"/>
<text text-anchor="middle" x="369" y="-289.65" font-family="Helvetica,sans-Serif" font-size="12.00">control</text>
</g>
<!-- n1&#45;&gt;lokistore -->
<g id="edge6" class="edge">
<title>n1&#45;&gt;lokistore</title>
<path fill="none" stroke="black" d="M116.1,-208.24C125.14,-198.57 137.14,-186.57 149,-177.25 162.31,-166.8 177.78,-156.75 192.05,-148.22"/>
<polygon fill="black" stroke="black" points="193.9,-151.19 200.76,-143.11 190.36,-145.15 193.9,-151.19"/>
<text text-anchor="middle" x="172.5" y="-180.65" font-family="Helvetica,sans-Serif" font-size="12.00">forward</text>
</g>
<!-- n2&#45;&gt;lokistore -->
<g id="edge7" class="edge">
<title>n2&#45;&gt;lokistore</title>
<path fill="none" stroke="black" d="M196,-207.96C197.95,-198.64 200.89,-187.08 205,-177.25 206.27,-174.2 207.7,-171.13 209.23,-168.07"/>
<polygon fill="black" stroke="black" points="212.45,-169.48 214.07,-159.01 206.27,-166.18 212.45,-169.48"/>
<text text-anchor="middle" x="228.5" y="-180.65" font-family="Helvetica,sans-Serif" font-size="12.00">forward</text>
</g>
<!-- n3&#45;&gt;lokistore -->
<g id="edge8" class="edge">
<title>n3&#45;&gt;lokistore</title>
<path fill="none" stroke="black" d="M277.03,-207.93C272.09,-197.2 265.5,-182.88 259.14,-169.06"/>
<polygon fill="black" stroke="black" points="262.16,-167.25 254.8,-159.62 255.8,-170.17 262.16,-167.25"/>
<text text-anchor="middle" x="291.5" y="-180.65" font-family="Helvetica,sans-Serif" font-size="12.00">forward</text>
</g>
<!-- console -->
<g id="node8" class="node">
<title>console</title>
<ellipse fill="aliceblue" stroke="black" cx="238" cy="-18" rx="131.88" ry="18"/>
<text text-anchor="middle" x="238" y="-14.3" font-family="Helvetica,sans-Serif" font-size="14.00">Openshift Logging Console</text>
</g>
<!-- console&#45;&gt;lokistore -->
<g id="edge9" class="edge">
<title>console&#45;&gt;lokistore</title>
<path fill="none" stroke="black" d="M238,-36.02C238,-46.6 238,-60.76 238,-74.48"/>
<polygon fill="black" stroke="black" points="234.5,-74.83 238,-84.83 241.5,-74.83 234.5,-74.83"/>
<text text-anchor="middle" x="292" y="-57.4" font-family="Helvetica,sans-Serif" font-size="12.00">browse and query</text>
</g>
</g>
</svg>
